# File created by Blade
# Date/Time:  Thu Sep 25 21:01:51 2014
# Frame Rate: 120.000 fps
#------------------------------------------------------
:FULLY-SPECIFIED
:DEGREES
3335
root -2.556954 14.894534 -0.335129 26.865582 -13.207785 3.063527
Spine -13.503381 15.878976 10.132111
Head -5.696906 -12.926558 -2.075619
LeftShoulder -5.855656 23.871038 11.342800
LeftArm 15.688728 18.542781 -62.300141
LeftForeArm 11.441435 -0.000000 38.835141
LeftHand -19.490260 -0.000000 -1.231102
LeftHandThumb1 -26.253704 0.000000 33.147579
RightShoulder -13.952527 9.141009 -17.922263
RightArm -4.849313 -45.282743 78.443726
RightForeArm -21.741147 -0.000000 25.703518
RightHand -6.791994 -0.000000 11.141224
RightHandThumb1 -24.326973 -0.000000 -32.862282
LeftUpLeg -121.441554 9.357463 -11.323881
LeftLeg 101.736162 -0.000000 -0.000000
LeftFoot -11.532323 -5.796516 -2.009175
LeftToeBase 9.502417 -0.000000 -0.000000
RightUpLeg 5.961822 6.612782 -13.525666
RightLeg 71.993848 -0.000000 -0.000000
RightFoot 9.688792 -4.545342 6.892430
RightToeBase -8.822774 -0.000000 0.000000
3336
root -2.559446 14.844391 -0.241963 27.046759 -13.246765 3.242636
Spine -14.071416 15.500167 9.449036
Head -5.343117 -13.004384 -1.820883
LeftShoulder -5.962315 23.834386 11.221410
LeftArm 16.131817 18.260484 -61.650857
LeftForeArm 11.586558 -0.000000 39.068170
LeftHand -19.428569 -0.000000 -1.080655
LeftHandThumb1 -26.253704 0.000000 33.147579
RightShoulder -13.959060 9.021384 -17.956556
RightArm -5.302443 -45.596024 78.983056
RightForeArm -21.758314 -0.000000 25.863633
RightHand -6.816252 -0.000000 11.255552
RightHandThumb1 -24.326973 -0.000000 -32.862282
LeftUpLeg -121.739432 9.247539 -11.456091
LeftLeg 102.211374 -0.000000 -0.000000
LeftFoot -11.904240 -5.727031 -2.040308
LeftToeBase 9.481282 -0.000000 -0.000000
RightUpLeg 6.116674 6.514389 -13.750773
RightLeg 71.610815 -0.000000 -0.000000
RightFoot 9.740409 -4.541991 6.914361
RightToeBase -7.794414 -0.000000 0.000000
3337
root -2.561964 14.787335 -0.143825 27.284426 -13.303600 3.348623
Spine -14.719975 15.257152 8.815940
Head -4.967454 -13.182295 -1.602481
LeftShoulder -5.961883 23.787318 11.213103
LeftArm 16.481039 18.025622 -61.097547
LeftForeArm 11.759653 -0.000000 39.352109
LeftHand -19.413875 -0.000000 -1.031233
LeftHandThumb1 -26.253704 0.000000 33.147579
RightShoulder -14.052930 8.802368 -18.100419
RightArm -5.803339 -45.928175 79.593314
RightForeArm -21.731725 -0.000000 26.037857
RightHand -6.765081 -0.000000 11.352475
RightHandThumb1 -24.326973 -0.000000 -32.862282
LeftUpLeg -122.116991 9.171946 -11.569468
LeftLeg 102.735284 -0.000000 -0.000000
LeftFoot -12.323410 -5.651871 -2.088710
LeftToeBase 9.545925 -0.000000 -0.000000
RightUpLeg 6.265484 6.605323 -13.875137
RightLeg 71.203818 -0.000000 -0.000000
RightFoot 9.715773 -4.365157 7.094715
RightToeBase -8.142042 -0.000000 0.000000
3338
root -2.553955 14.738463 -0.055647 27.512528 -13.369403 3.616021
Spine -15.353300 14.943715 8.004626
Head -4.690556 -13.293292 -1.301162
LeftShoulder -5.947296 23.731355 11.220767
LeftArm 16.880506 17.766951 -60.478016
LeftForeArm 12.006883 -0.000000 39.600697
LeftHand -19.445459 -0.000000 -1.327899
LeftHandThumb1 -26.253704 0.000000 33.147579
RightShoulder -14.118169 8.717600 -18.197037
RightArm -6.477698 -46.013515 80.306636
RightForeArm -21.853325 -0.000000 26.177732
RightHand -6.681805 -0.000000 11.521790
RightHandThumb1 -24.326973 -0.000000 -32.862282
LeftUpLeg -122.447866 8.987080 -11.837634
LeftLeg 103.164009 -0.000000 -0.000000
LeftFoot -12.722335 -5.457078 -2.040659
LeftToeBase 9.495631 -0.000000 -0.000000
RightUpLeg 6.362226 6.647903 -14.233076
RightLeg 70.866160 -0.000000 -0.000000
RightFoot 9.645944 -3.900660 7.752823
RightToeBase -8.229712 -0.000000 0.000000
3339
root -2.549209 14.687123 0.039494 27.627725 -13.395455 3.744255
Spine -15.752372 14.650678 7.500808
Head -4.494676 -13.360860 -1.226883
LeftShoulder -5.888594 23.596774 11.223861
LeftArm 17.229080 17.329816 -60.128474
LeftForeArm 12.433137 -0.000000 39.696250
LeftHand -19.389798 -0.000000 -1.464472
LeftHandThumb1 -26.253704 0.000000 33.147579
RightShoulder -14.207689 8.529182 -18.375947
RightArm -6.926105 -46.164080 80.827251
RightForeArm -21.798343 -0.000000 26.299484
RightHand -6.548986 -0.000000 11.732079
RightHandThumb1 -24.326973 -0.000000 -32.862282
LeftUpLeg -122.700034 8.890514 -11.979308
LeftLeg 103.640312 -0.000000 -0.000000
LeftFoot -13.055328 -5.311834 -2.175546
LeftToeBase 9.330475 -0.000000 -0.000000
RightUpLeg 6.608932 6.637175 -14.429085
RightLeg 70.441744 -0.000000 -0.000000
RightFoot 9.679579 -3.846416 7.838515
RightToeBase -8.397242 -0.000000 0.000000
3340
root -2.559979 14.636374 0.124566 27.805925 -13.473507 3.775276
Spine -16.187779 14.385213 7.021810
Head -4.317705 -13.349700 -1.056347
LeftShoulder -5.866823 23.567506 11.246781
LeftArm 17.630543 16.986497 -59.637381
LeftForeArm 12.716404 -0.000000 39.861277
LeftHand -19.253278 -0.000000 -1.306780
LeftHandThumb1 -26.253704 0.000000 33.147579
RightShoulder -14.207321 8.393854 -18.514445
RightArm -7.496396 -46.251336 81.435069
RightForeArm -21.877328 0.000000 26.414951
RightHand -6.396207 -0.000000 11.777400
RightHandThumb1 -24.326973 -0.000000 -32.862282
LeftUpLeg -123.032715 8.936435 -12.127424
LeftLeg 104.108149 -0.000000 -0.000000
LeftFoot -13.403367 -5.288742 -2.256427
LeftToeBase 9.469197 -0.000000 -0.000000
RightUpLeg 6.742568 6.607415 -14.500140
RightLeg 70.077324 -0.000000 -0.000000
RightFoot 9.754339 -4.101841 7.507627
RightToeBase -8.713739 -0.000000 0.000000
3341
root -2.561572 14.588020 0.208860 27.899171 -13.541577 3.942707
Spine -16.500051 14.064063 6.421223
Head -4.278962 -13.415779 -0.803752
LeftShoulder -5.774091 23.328056 11.322423
LeftArm 17.864192 16.677273 -59.208453
LeftForeArm 13.007074 0.000000 40.041844
LeftHand -19.173222 -0.000000 -1.355073
LeftHandThumb1 -26.253704 0.000000 33.147579
RightShoulder -14.227709 8.323153 -18.596687
RightArm -8.122070 -46.231420 82.001703
RightForeArm -21.880331 -0.000000 26.619954
RightHand -6.467146 -0.000000 11.924569
RightHandThumb1 -24.326973 -0.000000 -32.862282
LeftUpLeg -123.261091 8.909993 -12.371724
LeftLeg 104.546446 -0.000000 -0.000000
LeftFoot -13.747346 -5.302913 -2.393679
LeftToeBase 9.719640 -0.000000 -0.000000
RightUpLeg 6.962874 6.594930 -14.717877
RightLeg 69.742306 -0.000000 -0.000000
RightFoot 9.661384 -4.091879 7.529713
RightToeBase -8.713024 -0.000000 0.000000
3342
root -2.574068 14.540259 0.292164 28.022603 -13.561708 3.988045
Spine -16.815617 13.774093 5.993107
Head -4.249839 -13.474883 -0.666362
LeftShoulder -5.653447 23.183692 11.398505
LeftArm 18.194297 16.343649 -58.758003
LeftForeArm 13.226618 -0.000000 40.124671
LeftHand -19.191506 -0.000000 -1.442959
LeftHandThumb1 -26.253704 0.000000 33.147579
RightShoulder -14.229205 8.224256 -18.714299
RightArm -8.752620 -46.208119 82.557072
RightForeArm -21.985722 -0.000000 26.791378
RightHand -6.501141 -0.000000 11.922040
RightHandThumb1 -24.326973 -0.000000 -32.862282
LeftUpLeg -123.516482 8.946743 -12.531857
LeftLeg 104.995484 -0.000000 -0.000000
LeftFoot -14.056082 -5.469015 -2.393846
LeftToeBase 9.978317 -0.000000 -0.000000
RightUpLeg 7.179432 6.603759 -14.753103
RightLeg 69.435832 -0.000000 -0.000000
RightFoot 9.487715 -3.975191 7.706876
RightToeBase -8.632961 -0.000000 0.000000
3343
root -2.593073 14.497504 0.362130 28.114900 -13.663799 4.057343
Spine -17.013875 13.523282 5.440549
Head -4.375455 -13.520199 -0.324220
LeftShoulder -5.498475 22.938509 11.522650
LeftArm 18.498488 15.912210 -58.290700
LeftForeArm 13.459977 -0.000000 40.131228
LeftHand -19.117533 -0.000000 -1.683745
LeftHandThumb1 -26.253704 0.000000 33.147579
RightShoulder -14.253397 8.141470 -18.689740
RightArm -9.221479 -46.190068 82.954363
RightForeArm -21.989327 -0.000000 26.893108
RightHand -6.498119 -0.000000 12.154737
RightHandThumb1 -24.326973 -0.000000 -32.862282
LeftUpLeg -123.753206 9.101658 -12.767139
LeftLeg 105.368987 -0.000000 -0.000000
LeftFoot -14.412987 -5.474163 -2.318332
LeftToeBase 10.117338 -0.000000 -0.000000
RightUpLeg 7.351785 6.711408 -14.811957
RightLeg 69.204618 -0.000000 -0.000000
RightFoot 9.211778 -4.200157 7.881997
RightToeBase -8.225028 -0.000000 0.000000
3344
root -2.589001 14.458895 0.435698 28.195685 -13.810336 4.250948
Spine -17.214283 13.234778 4.811186
Head -4.521541 -13.555092 -0.040038
LeftShoulder -5.384894 22.720042 11.658904
LeftArm 18.837527 15.469381 -57.897369
LeftForeArm 13.723733 -0.000000 40.059842
LeftHand -19.085425 -0.000000 -1.910643
LeftHandThumb1 -26.253704 0.000000 33.147579
RightShoulder -14.244418 8.036412 -18.701844
RightArm -9.682178 -46.186727 83.339881
RightForeArm -21.962997 0.000000 26.986983
RightHand -6.537769 0.000000 12.232695
RightHandThumb1 -24.326973 -0.000000 -32.862282
LeftUpLeg -123.978328 9.145676 -13.176050
LeftLeg 105.732705 -0.000000 -0.000000
LeftFoot -14.667349 -5.503463 -2.366928
LeftToeBase 10.182672 -0.000000 -0.000000
RightUpLeg 7.502350 6.716901 -15.098345
RightLeg 69.004997 -0.000000 -0.000000
RightFoot 8.973253 -4.326964 8.337132
RightToeBase -8.828755 -0.000000 0.000000
3345
root -2.598149 14.420424 0.504874 28.280621 -13.844144 4.307740
Spine -17.360049 12.913842 4.432576
Head -4.699535 -13.440005 0.159073
LeftShoulder -5.256886 22.534857 11.747533
LeftArm 19.188605 14.997112 -57.521734
LeftForeArm 13.682365 -0.000000 39.910097
LeftHand -18.969314 -0.000000 -1.821503
LeftHandThumb1 -26.253704 0.000000 33.147579
RightShoulder -14.230054 7.959099 -18.813295
RightArm -10.125833 -46.223009 83.729371
RightForeArm -21.835828 -0.000000 27.008358
RightHand -6.431790 0.000000 12.355481
RightHandThumb1 -24.326973 -0.000000 -32.862282
LeftUpLeg -124.205179 9.201156 -13.431116
LeftLeg 106.097205 -0.000000 -0.000000
LeftFoot -14.844432 -5.624768 -2.229089
LeftToeBase 10.100856 -0.000000 -0.000000
RightUpLeg 7.684386 6.720896 -15.163081
RightLeg 68.801070 -0.000000 -0.000000
RightFoot 8.577349 -4.768916 8.488362
RightToeBase -8.736466 -0.000000 0.000000
3346
root -2.602599 14.387021 0.574561 28.414769 -13.965088 4.366228
Spine -17.536245 12.671248 4.011173
Head -4.919319 -13.392975 0.364170
LeftShoulder -5.188162 22.354098 11.817966
LeftArm 19.594602 14.531348 -57.096531
LeftForeArm 13.574414 -0.000000 39.691644
LeftHand -18.862105 -0.000000 -1.994609
LeftHandThumb1 -26.253704 0.000000 33.147579
RightShoulder -14.197337 7.927342 -18.892896
RightArm -10.705663 -46.175988 84.161494
RightForeArm -21.785515 -0.000000 27.088695
RightHand -6.394901 -0.000000 12.537794
RightHandThumb1 -24.326973 -0.000000 -32.862282
LeftUpLeg -124.479086 9.307797 -13.763899
LeftLeg 106.463995 -0.000000 -0.000000
LeftFoot -15.044477 -5.701029 -2.032803
LeftToeBase 9.898027 -0.000000 -0.000000
RightUpLeg 7.754979 6.693222 -15.313017
RightLeg 68.643392 -0.000000 -0.000000
RightFoot 8.374156 -5.246875 8.669744
RightToeBase -8.510600 -0.000000 0.000000
